<?xml version="1.0" encoding="utf-8"?>
<!-- Generator: Adobe Illustrator 25.4.1, SVG Export Plug-In . SVG Version: 6.00 Build 0)  -->
<svg version="1.1" id="레이어_1" xmlns="http://www.w3.org/2000/svg" xmlns:xlink="http://www.w3.org/1999/xlink" x="0px"
	 y="0px" viewBox="0 0 50px 50px" style="enable-background:new 0 0 50px 50px;" xml:space="preserve">
<style type="text/css">
	.st0{fill:#FFFFFF;}
</style>
<path class="st0" d="M25.9,22.98v6.13h14.65c-0.45,3.44-1.59,5.95-3.34,7.72c-2.14,2.14-5.48,4.48-11.31,4.48
	c-9.02,0-16.07-7.27-16.07-16.29S16.88,8.74,25.9,8.74c4.86,0,8.42,1.92,11.03,4.38l4.31-4.31C37.6,5.27,32.72,2.58,25.9,2.58
	C13.54,2.58,3.16,12.65,3.16,25c0,12.35,10.39,22.42,22.74,22.42c6.68,0,11.71-2.19,15.64-6.28c4.04-4.03,5.31-9.74,5.31-14.32
	c0-1.42-0.1-2.74-0.32-3.84H25.9z"/>
</svg>
